<svg width="25" height="24" viewBox="0 0 25 24" fill="none" xmlns="http://www.w3.org/2000/svg">
<g clip-path="url(#clip0_3013_16532)">
<path d="M23.1082 6.31C22.2969 4.96163 21.2853 3.74439 20.1082 2.7C18.4799 1.22739 16.43 0.303866 14.2482 0.0600042C12.092 -0.119949 9.92639 0.269725 7.96819 1.19C6.29739 1.94913 4.82801 3.0897 3.67819 4.52C2.55104 5.93742 1.75189 7.58694 1.33819 9.35C1.32785 9.39271 1.32614 9.43704 1.33316 9.48041C1.34018 9.52378 1.35579 9.56532 1.37908 9.60257C1.40236 9.63983 1.43286 9.67206 1.46876 9.69738C1.50467 9.7227 1.54527 9.74059 1.58819 9.75C1.67151 9.76503 1.75741 9.74746 1.82814 9.70093C1.89887 9.6544 1.94901 9.58247 1.96819 9.5C2.39547 7.84345 3.19203 6.30505 4.29819 5C5.37589 3.69814 6.74664 2.67007 8.29819 2C10.1308 1.19973 12.1382 0.882964 14.1282 1.08C16.0936 1.33006 17.9321 2.18643 19.3882 3.53C20.4614 4.5046 21.3877 5.62963 22.1382 6.87C22.9082 8.07382 23.3748 9.44635 23.4982 10.87C23.6286 12.4576 23.4417 14.0554 22.9482 15.57C22.445 17.0717 21.5261 18.3998 20.2982 19.4C19.5001 20.073 18.5651 20.5643 17.5582 20.84C16.0155 21.2832 14.4227 21.5285 12.8182 21.57C12.7404 21.5752 12.6676 21.6104 12.6154 21.6683C12.5631 21.7261 12.5354 21.8021 12.5382 21.88C12.5382 21.9189 12.546 21.9575 12.5612 21.9933C12.5764 22.0292 12.5986 22.0616 12.6266 22.0887C12.6546 22.1157 12.6878 22.1369 12.7241 22.1509C12.7605 22.1648 12.7993 22.1713 12.8382 22.17C14.501 22.1614 16.1566 21.9499 17.7682 21.54C18.861 21.2575 19.8828 20.75 20.7682 20.05C22.1609 18.9847 23.2222 17.5454 23.8282 15.9C24.4036 14.2712 24.6517 12.5449 24.5582 10.82C24.4506 9.22079 23.9527 7.67231 23.1082 6.31Z" fill="#0C6FFF"/>
<path d="M16.8882 15.92C17.5672 15.6262 18.135 15.1237 18.509 14.4853C18.8831 13.8469 19.0439 13.106 18.9682 12.37C18.9398 12.2018 18.8688 12.0437 18.762 11.9106C18.6553 11.7776 18.5162 11.6741 18.3582 11.61C17.9053 11.4872 17.4312 11.4633 16.9682 11.54C15.7482 11.61 13.9182 11.92 12.4282 12.08C12.0282 12.13 11.6482 12.16 11.3182 12.18C11.2493 12.1927 11.187 12.2292 11.1421 12.2831C11.0973 12.337 11.0727 12.4049 11.0727 12.475C11.0727 12.5451 11.0973 12.613 11.1421 12.6669C11.187 12.7207 11.2493 12.7572 11.3182 12.77L16.9782 12.59H17.8082C17.841 13.0929 17.7186 13.5937 17.4574 14.0247C17.1963 14.4558 16.8091 14.7962 16.3482 15C15.8983 15.3065 15.3876 15.5125 14.851 15.604C14.3143 15.6954 13.7642 15.6702 13.2382 15.53C12.828 15.3573 12.4494 15.1173 12.1182 14.82C11.783 14.5425 11.5046 14.203 11.2982 13.82C11.2798 13.7793 11.2536 13.7426 11.221 13.712C11.1885 13.6814 11.1502 13.6575 11.1084 13.6417C11.0666 13.6259 11.0221 13.6185 10.9775 13.62C10.9328 13.6214 10.8889 13.6316 10.8482 13.65C10.8078 13.6673 10.7713 13.6926 10.7409 13.7242C10.7104 13.7558 10.6865 13.7932 10.6707 13.8342C10.6548 13.8752 10.6473 13.9189 10.6486 13.9629C10.6499 14.0068 10.66 14.05 10.6782 14.09C10.8893 14.5869 11.1989 15.0359 11.5882 15.41C11.9668 15.7911 12.4019 16.1116 12.8782 16.36C13.5373 16.5889 14.2392 16.6682 14.9328 16.5921C15.6264 16.516 16.2944 16.2864 16.8882 15.92Z" fill="#020202"/>
<path d="M9.28818 11C9.5107 11.0613 9.74566 11.0613 9.96818 11C10.1447 10.9382 10.3032 10.8336 10.4293 10.6956C10.5554 10.5575 10.6453 10.3902 10.6909 10.2089C10.7365 10.0275 10.7364 9.83762 10.6905 9.6563C10.6447 9.47499 10.5545 9.30789 10.4282 9.17C9.42818 7.93 7.42818 9.99 8.68818 10.89C8.87508 10.9786 9.08199 11.0166 9.28818 11Z" fill="#020202"/>
<path d="M20.1182 10.36C20.3429 10.4001 20.5742 10.3794 20.7882 10.3C20.9665 10.2389 21.1268 10.1342 21.2543 9.99535C21.3818 9.8565 21.4726 9.68795 21.5183 9.50506C21.564 9.32216 21.5633 9.13073 21.5161 8.94821C21.4689 8.76568 21.3768 8.59786 21.2482 8.46003C20.2482 7.23003 18.2482 9.29003 19.5082 10.19C19.692 10.3017 19.9031 10.3605 20.1182 10.36Z" fill="#020202"/>
<path d="M10.5882 20.11C10.4858 19.9059 10.3304 19.7332 10.1382 19.61C10.3345 19.2865 10.4089 18.9035 10.3482 18.53C10.3065 18.1765 10.1906 17.8357 10.0082 17.53C9.87321 17.3302 9.69561 17.1629 9.48818 17.04C9.5303 16.9448 9.55729 16.8436 9.56818 16.74C9.62143 16.4123 9.59468 16.0765 9.49021 15.7614C9.38574 15.4462 9.20664 15.161 8.96818 14.93C8.45389 14.5993 7.84878 14.4384 7.23818 14.47C6.48845 14.448 5.74339 14.595 5.05818 14.9C5.11799 14.0003 4.86738 13.1072 4.34818 12.37C3.44818 11.37 1.80818 12.24 1.63818 13.73C1.62085 14.3416 1.69844 14.9522 1.86818 15.54C2.14818 16.54 2.09818 16.49 2.34818 16.87C2.12816 17.1095 1.943 17.3788 1.79818 17.67C1.69818 18.01 1.51818 18.41 1.67818 18.67C1.83818 18.93 1.97818 18.9 2.14818 18.73C2.31818 18.56 2.23818 18.29 2.28818 18.13C2.36246 17.8434 2.51074 17.5813 2.71818 17.37C2.87818 17.16 2.99818 17.15 3.18818 16.97C5.03818 15.2 7.80818 15 8.30818 15.69C9.15818 16.85 7.14818 16.98 5.40818 18.06C5.36993 18.071 5.33446 18.0899 5.30412 18.1157C5.27379 18.1414 5.24929 18.1733 5.23226 18.2093C5.21523 18.2453 5.20605 18.2844 5.20535 18.3242C5.20465 18.364 5.21243 18.4035 5.22818 18.44C5.24045 18.4774 5.2602 18.5118 5.28622 18.5413C5.31225 18.5708 5.34399 18.5947 5.37954 18.6116C5.41509 18.6284 5.45369 18.6378 5.49299 18.6393C5.5323 18.6407 5.57149 18.6342 5.60818 18.62C6.01818 18.56 6.37818 18.56 6.72818 18.51C7.72818 18.34 7.97818 17.85 8.88818 18C9.04391 18.1269 9.15091 18.3038 9.19101 18.5007C9.23112 18.6976 9.20185 18.9023 9.10818 19.08C8.64824 19.3949 8.1323 19.619 7.58818 19.74C7.21882 19.9165 6.8614 20.1169 6.51818 20.34C6.48019 20.3503 6.44469 20.3682 6.41384 20.3926C6.38299 20.417 6.35744 20.4474 6.33873 20.4821C6.32002 20.5167 6.30855 20.5547 6.30501 20.5939C6.30148 20.6331 6.30596 20.6726 6.31818 20.71C6.32844 20.748 6.34633 20.7835 6.37075 20.8143C6.39517 20.8452 6.42562 20.8707 6.46023 20.8894C6.49484 20.9082 6.5329 20.9196 6.57209 20.9232C6.61128 20.9267 6.65077 20.9222 6.68818 20.91C7.0492 20.9069 7.40977 20.8836 7.76818 20.84C7.92479 20.8188 8.07889 20.7819 8.22818 20.73C8.59224 20.5142 9.02403 20.4428 9.43818 20.53C9.47104 20.5362 9.50224 20.5492 9.5298 20.5681C9.55735 20.587 9.58064 20.6115 9.59818 20.64C9.6283 20.7172 9.6283 20.8028 9.59818 20.88C9.54541 21.1342 9.42441 21.3693 9.24818 21.56C9.04612 21.7892 8.8179 21.9939 8.56818 22.17C7.89948 22.6307 7.12583 22.916 6.31818 23C5.51747 23.1178 4.69979 22.996 3.96818 22.65C3.43423 22.3675 3.01136 21.9129 2.76818 21.36C2.49772 20.7744 2.33836 20.1437 2.29818 19.5C2.29692 19.4558 2.28678 19.4123 2.26836 19.372C2.24995 19.3318 2.22363 19.2957 2.19098 19.2658C2.15833 19.236 2.12001 19.213 2.0783 19.1983C2.03659 19.1835 1.99233 19.1773 1.94818 19.18C1.9035 19.1825 1.85977 19.1939 1.81948 19.2134C1.7792 19.2329 1.74316 19.2601 1.71343 19.2936C1.68371 19.327 1.66087 19.366 1.64624 19.4083C1.63161 19.4506 1.62547 19.4953 1.62818 19.54C1.6408 20.4262 1.86357 21.2967 2.27818 22.08C2.58177 22.6253 3.0276 23.0781 3.56818 23.39C4.43758 23.869 5.42887 24.0812 6.41818 24C7.41177 23.9088 8.36543 23.5645 9.18818 23C9.59888 22.726 9.96342 22.3884 10.2682 22C10.4954 21.7059 10.6527 21.3639 10.7282 21C10.7772 20.696 10.7282 20.3843 10.5882 20.11ZM2.77818 16.39L2.68818 15.39C2.68818 14.64 2.55818 13.66 3.05818 13.2C3.15818 13.2 3.50818 12.61 3.93818 13.42C4.17567 13.8631 4.32189 14.3494 4.36818 14.85C4.36778 14.9005 4.37935 14.9504 4.40195 14.9956C4.42454 15.0408 4.45752 15.08 4.49818 15.11C3.86251 15.4458 3.28238 15.8775 2.77818 16.39Z" fill="#020202"/>
</g>
<defs>
<clipPath id="clip0_3013_16532">
<rect width="24" height="24" fill="white" transform="translate(0.968201)"/>
</clipPath>
</defs>
</svg>
